<?xml version="1.0" encoding="utf-8"?>
<!-- Generator: Adobe Illustrator 19.2.1, SVG Export Plug-In . SVG Version: 6.00 Build 0)  -->
<svg version="1.1" id="Capa_1" xmlns="http://www.w3.org/2000/svg" xmlns:xlink="http://www.w3.org/1999/xlink" x="0px" y="0px"
	 viewBox="0 0 512 512" style="enable-background:new 0 0 512 512;" xml:space="preserve">
<style type="text/css">
	.st0{fill:#FFFFFF;}
</style>
<path class="st0" d="M484.3,288.2l27.7-20.6l-25.6-23.2l23.3-25.5L480.2,201l18-29.4l-32.2-12l12.1-32.3l-34.1-5.6l5.8-34l-34.5,0.9
	l-0.8-34.5l-33.7,7.4l-7.3-33.8l-31.7,13.6L328.3,9.5l-28.6,19.4L280.4,0.3L256,24.8L231.7,0.2l-19.3,28.6L183.8,9.4l-13.5,31.8
	l-31.7-13.6l-7.3,33.8L97.6,54l-0.8,34.6l-34.5-0.9l5.8,34L34,127.3l12.2,32.4l-32.4,12l18,29.4L2.3,219l23.3,25.4L0,267.6
	l27.7,20.6L6.9,315.8l31.1,15l-15.2,31l33.4,8.9l-9,33.3l34.4,2.4l-2.5,34.5l34.3-4.2l4,34.3l32.9-10.6l10.4,32.9l30.3-16.6
	l16.5,30.4l26.6-22.1l21.9,26.7l21.9-26.7l26.6,22.1l16.5-30.4l30.3,16.6l10.4-32.9l32.9,10.6l4-34.3l34.3,4.2l-2.5-34.5l34.4-2.4
	l-9-33.3l33.4-8.9l-15.2-31l31.1-15L484.3,288.2z M309.9,212.5c7.7,0,13.9,6.2,13.9,13.9c0,7.7-6.2,13.9-13.9,13.9h-95.5
	c-0.7,5.1-1.1,10.3-1.1,15.7c0,4.7,0.3,9.4,0.8,13.9h95.7c7.7,0,13.9,6.2,13.9,13.9c0,7.7-6.2,13.9-13.9,13.9h-88.6
	c13,32.4,40.6,54.8,72.5,54.8c19.5,0,38.3-8.5,53-24c5.3-5.6,14.1-5.8,19.7-0.5c5.6,5.3,5.8,14.1,0.5,19.7c-20,21-46,32.6-73.2,32.6
	c-47,0-87-34.5-102-82.6h-36.7c-7.7,0-13.9-6.2-13.9-13.9c0-7.7,6.2-13.9,13.9-13.9h31.1c-0.5-4.6-0.7-9.2-0.7-13.9
	c0-5.3,0.3-10.5,0.9-15.7h-31.3c-7.7,0-13.9-6.2-13.9-13.9c0-7.7,6.2-13.9,13.9-13.9h37.3c15.4-47.2,55.1-80.9,101.5-80.9
	c27.2,0,53.2,11.6,73.2,32.6c5.3,5.6,5.1,14.4-0.5,19.7c-5.6,5.3-14.4,5.1-19.7-0.5c-14.7-15.5-33.5-24-53-24
	c-31.3,0-58.5,21.6-71.8,53.1H309.9z"/>
</svg>
