<?xml version="1.0" encoding="utf-8"?>
<!-- Generator: Adobe Illustrator 19.2.1, SVG Export Plug-In . SVG Version: 6.00 Build 0)  -->
<svg version="1.1" id="Capa_1" xmlns="http://www.w3.org/2000/svg" xmlns:xlink="http://www.w3.org/1999/xlink" x="0px" y="0px"
	 viewBox="0 0 512 512" style="enable-background:new 0 0 512 512;" xml:space="preserve">
<style type="text/css">
	.st0{fill:#FFFFFF;}
</style>
<g>
	<path class="st0" d="M494.4,163.4c-10.5-26.9-25.3-51.7-43.7-73.3c-38.2-44.8-91.5-76-152-86.2C284.8,1.5,270.6,0,256,0
		c-14.6,0-28.8,1.5-42.7,3.8C152.8,14,99.5,45.3,61.3,90c-18.4,21.6-33.2,46.4-43.7,73.3C6.4,192.1,0,223.3,0,256
		c0,30.1,5.4,58.8,15,85.6c9.7,27.3,23.7,52.5,41.5,74.6c38.5,47.8,93.7,81.4,156.9,92c13.9,2.3,28.1,3.8,42.7,3.8
		c14.6,0,28.8-1.5,42.7-3.8c63.1-10.6,118.4-44.1,156.8-92c17.8-22.1,31.8-47.3,41.5-74.6c9.5-26.8,15-55.5,15-85.6
		C512,223.3,505.6,192.1,494.4,163.4z M464.4,180.7l-44.8,25.8c-8.5-28-24-52.9-44.4-72.9l45.2-26.1
		C439.5,128.7,454.5,153.4,464.4,180.7z M392.9,256c0,75.5-61.4,136.9-136.9,136.9c-75.5,0-136.9-61.4-136.9-136.9
		c0-75.5,61.4-136.9,136.9-136.9C331.5,119.1,392.9,180.5,392.9,256z M256,34.1c14.6,0,28.8,1.5,42.7,4.2v52.2
		C285,87.1,270.7,85,256,85c-14.8,0-29,2.1-42.7,5.6V38.3C227.1,35.6,241.4,34.1,256,34.1z M91.6,107.5l45.2,26.1
		c-20.4,19.9-35.9,44.9-44.4,72.9l-44.8-25.8C57.5,153.4,72.5,128.7,91.6,107.5z M45,324.3l45.4-26.2c7.2,28.5,21.6,54.1,41.1,74.8
		l-45,26C68.2,377.2,54,351.9,45,324.3z M256,477.9c-14.6,0-28.9-1.5-42.7-4.2v-52.2c13.7,3.5,27.9,5.6,42.7,5.6
		c14.7,0,29-2.1,42.7-5.6v52.2C284.8,476.4,270.6,477.9,256,477.9z M425.5,398.9l-45-26c19.5-20.8,33.8-46.4,41.1-74.8l45.4,26.2
		C458,351.9,443.8,377.2,425.5,398.9z"/>
	<path class="st0" d="M270.5,237.4c-21.8-8.2-30.7-13.6-30.7-22c0-7.2,5.4-14.3,22-14.3c9.6,0,17.4,1.6,23.6,3.5
		c3.5,1.1,7.3,0.7,10.6-1.1c3.2-1.8,5.5-4.8,6.5-8.4l0.2-0.9c2.1-8.2-2.8-16.5-11-18.6c-6.3-1.6-13.7-2.8-22.7-3.2v-9.6
		c0-6.5-4.8-12.2-11.3-12.9c-7.5-0.7-13.7,5.2-13.7,12.5v11.8c-27.4,5.4-43.3,23-43.3,45.6c0,24.8,18.7,37.6,46.1,46.8
		c18.9,6.4,27.1,12.5,27.1,22.3c0,10.2-10,15.9-24.6,15.9c-10.4,0-20.3-2.1-28.8-5.2c-3.6-1.3-7.5-1-10.9,0.8
		c-3.3,1.8-5.8,4.9-6.7,8.6l-0.1,0.4c-2.2,8.7,2.8,17.6,11.4,20.2c8.4,2.5,18.4,4.3,28.5,4.8v11.4c0,6.9,5.6,12.5,12.5,12.5l0,0
		c6.9,0,12.5-5.6,12.5-12.5v-13.2c29.4-5.1,45.6-24.6,45.6-47.4C313.2,262.2,300.9,248.2,270.5,237.4z"/>
</g>
</svg>
